<mxfile host="app.diagrams.net" modified="2022-10-20T01:27:11.884Z" agent="5.0 (Windows NT 6.3; Win64; x64) AppleWebKit/537.36 (KHTML, like Gecko) Chrome/106.0.0.0 Safari/537.36" etag="VeGrEdFB9aFxBPvaHWuU" version="20.4.2" type="github">
  <diagram id="C5RBs43oDa-KdzZeNtuy" name="Page-1">
    <mxGraphModel dx="1038" dy="579" grid="1" gridSize="10" guides="1" tooltips="1" connect="1" arrows="1" fold="1" page="1" pageScale="1" pageWidth="827" pageHeight="1169" math="0" shadow="0">
      <root>
        <mxCell id="WIyWlLk6GJQsqaUBKTNV-0" />
        <mxCell id="WIyWlLk6GJQsqaUBKTNV-1" parent="WIyWlLk6GJQsqaUBKTNV-0" />
        <mxCell id="m1yB8VaNzLGdRQ7UP5lw-0" value="" style="rounded=0;whiteSpace=wrap;html=1;fontFamily=Lucida Console;fontSize=11;" vertex="1" parent="WIyWlLk6GJQsqaUBKTNV-1">
          <mxGeometry x="90" y="10" width="760" height="60" as="geometry" />
        </mxCell>
        <mxCell id="m1yB8VaNzLGdRQ7UP5lw-1" value="" style="rounded=0;whiteSpace=wrap;html=1;fillColor=#66FFFF;strokeColor=#36393d;" vertex="1" parent="WIyWlLk6GJQsqaUBKTNV-1">
          <mxGeometry x="290" y="348" width="110" height="70" as="geometry" />
        </mxCell>
        <mxCell id="m1yB8VaNzLGdRQ7UP5lw-2" value="" style="rounded=0;whiteSpace=wrap;html=1;fillColor=#CCE5FF;strokeColor=#E5CCFF;gradientColor=none;" vertex="1" parent="WIyWlLk6GJQsqaUBKTNV-1">
          <mxGeometry x="620" y="180" width="110" height="140" as="geometry" />
        </mxCell>
        <mxCell id="m1yB8VaNzLGdRQ7UP5lw-3" value="" style="rounded=0;whiteSpace=wrap;html=1;fillColor=#CCE5FF;strokeColor=#E5CCFF;gradientColor=none;" vertex="1" parent="WIyWlLk6GJQsqaUBKTNV-1">
          <mxGeometry x="290" y="180" width="110" height="140" as="geometry" />
        </mxCell>
        <mxCell id="m1yB8VaNzLGdRQ7UP5lw-4" value="存储SDK" style="rounded=1;whiteSpace=wrap;html=1;fillColor=#FFD966;" vertex="1" parent="WIyWlLk6GJQsqaUBKTNV-1">
          <mxGeometry x="300" y="280" width="90" height="20" as="geometry" />
        </mxCell>
        <mxCell id="m1yB8VaNzLGdRQ7UP5lw-5" style="edgeStyle=orthogonalEdgeStyle;rounded=0;orthogonalLoop=1;jettySize=auto;html=1;exitX=0.5;exitY=1;exitDx=0;exitDy=0;entryX=0.5;entryY=0;entryDx=0;entryDy=0;fontSize=11;" edge="1" parent="WIyWlLk6GJQsqaUBKTNV-1" source="m1yB8VaNzLGdRQ7UP5lw-6" target="m1yB8VaNzLGdRQ7UP5lw-18">
          <mxGeometry relative="1" as="geometry" />
        </mxCell>
        <mxCell id="m1yB8VaNzLGdRQ7UP5lw-6" value="RPC Server" style="rounded=1;whiteSpace=wrap;html=1;fillColor=#66FFFF;strokeColor=#b46504;" vertex="1" parent="WIyWlLk6GJQsqaUBKTNV-1">
          <mxGeometry x="299" y="199" width="90" height="20" as="geometry" />
        </mxCell>
        <mxCell id="m1yB8VaNzLGdRQ7UP5lw-7" style="edgeStyle=orthogonalEdgeStyle;rounded=0;orthogonalLoop=1;jettySize=auto;html=1;exitX=0.5;exitY=1;exitDx=0;exitDy=0;entryX=1;entryY=0.5;entryDx=0;entryDy=0;dashed=1;fontFamily=Lucida Console;fontSize=11;fontColor=#000000;" edge="1" parent="WIyWlLk6GJQsqaUBKTNV-1" source="m1yB8VaNzLGdRQ7UP5lw-8" target="m1yB8VaNzLGdRQ7UP5lw-26">
          <mxGeometry relative="1" as="geometry" />
        </mxCell>
        <mxCell id="m1yB8VaNzLGdRQ7UP5lw-8" value="RPC Client" style="rounded=1;whiteSpace=wrap;html=1;fillColor=#66FFFF;strokeColor=#b46504;" vertex="1" parent="WIyWlLk6GJQsqaUBKTNV-1">
          <mxGeometry x="630" y="280" width="90" height="20" as="geometry" />
        </mxCell>
        <mxCell id="m1yB8VaNzLGdRQ7UP5lw-9" style="edgeStyle=orthogonalEdgeStyle;rounded=0;orthogonalLoop=1;jettySize=auto;html=1;exitX=0.5;exitY=1;exitDx=0;exitDy=0;entryX=0.5;entryY=0;entryDx=0;entryDy=0;fontSize=11;" edge="1" parent="WIyWlLk6GJQsqaUBKTNV-1" source="m1yB8VaNzLGdRQ7UP5lw-10" target="m1yB8VaNzLGdRQ7UP5lw-13">
          <mxGeometry relative="1" as="geometry" />
        </mxCell>
        <mxCell id="m1yB8VaNzLGdRQ7UP5lw-10" value="平台存储业务" style="rounded=1;whiteSpace=wrap;html=1;fillColor=#FF9999;" vertex="1" parent="WIyWlLk6GJQsqaUBKTNV-1">
          <mxGeometry x="630" y="200" width="90" height="20" as="geometry" />
        </mxCell>
        <mxCell id="m1yB8VaNzLGdRQ7UP5lw-11" style="edgeStyle=orthogonalEdgeStyle;rounded=0;orthogonalLoop=1;jettySize=auto;html=1;exitX=0.5;exitY=1;exitDx=0;exitDy=0;entryX=0.5;entryY=0;entryDx=0;entryDy=0;fontSize=11;" edge="1" parent="WIyWlLk6GJQsqaUBKTNV-1" source="m1yB8VaNzLGdRQ7UP5lw-13" target="m1yB8VaNzLGdRQ7UP5lw-8">
          <mxGeometry relative="1" as="geometry" />
        </mxCell>
        <mxCell id="m1yB8VaNzLGdRQ7UP5lw-12" style="edgeStyle=orthogonalEdgeStyle;rounded=0;orthogonalLoop=1;jettySize=auto;html=1;exitX=0.25;exitY=1;exitDx=0;exitDy=0;entryX=1;entryY=0.5;entryDx=0;entryDy=0;fontFamily=Lucida Console;fontSize=11;fontColor=#FF0000;strokeColor=#FF3399;" edge="1" parent="WIyWlLk6GJQsqaUBKTNV-1" source="m1yB8VaNzLGdRQ7UP5lw-13" target="m1yB8VaNzLGdRQ7UP5lw-24">
          <mxGeometry relative="1" as="geometry">
            <Array as="points">
              <mxPoint x="653" y="270" />
            </Array>
          </mxGeometry>
        </mxCell>
        <mxCell id="m1yB8VaNzLGdRQ7UP5lw-13" value="StorageClient&amp;nbsp;IF" style="rounded=1;whiteSpace=wrap;html=1;fillColor=#66FFFF;strokeColor=#b46504;" vertex="1" parent="WIyWlLk6GJQsqaUBKTNV-1">
          <mxGeometry x="630" y="240" width="90" height="20" as="geometry" />
        </mxCell>
        <mxCell id="m1yB8VaNzLGdRQ7UP5lw-14" value="" style="verticalLabelPosition=bottom;html=1;verticalAlign=top;align=center;strokeColor=none;fillColor=#00BEF2;shape=mxgraph.azure.vhd;pointerEvents=1;" vertex="1" parent="WIyWlLk6GJQsqaUBKTNV-1">
          <mxGeometry x="299" y="358" width="21" height="20" as="geometry" />
        </mxCell>
        <mxCell id="m1yB8VaNzLGdRQ7UP5lw-15" value="" style="verticalLabelPosition=bottom;html=1;verticalAlign=top;align=center;strokeColor=none;fillColor=#00BEF2;shape=mxgraph.azure.vhd;pointerEvents=1;" vertex="1" parent="WIyWlLk6GJQsqaUBKTNV-1">
          <mxGeometry x="332" y="358" width="21" height="20" as="geometry" />
        </mxCell>
        <mxCell id="m1yB8VaNzLGdRQ7UP5lw-16" value="" style="verticalLabelPosition=bottom;html=1;verticalAlign=top;align=center;strokeColor=none;fillColor=#00BEF2;shape=mxgraph.azure.vhd;pointerEvents=1;" vertex="1" parent="WIyWlLk6GJQsqaUBKTNV-1">
          <mxGeometry x="366" y="358" width="21" height="20" as="geometry" />
        </mxCell>
        <mxCell id="m1yB8VaNzLGdRQ7UP5lw-17" style="edgeStyle=orthogonalEdgeStyle;rounded=0;orthogonalLoop=1;jettySize=auto;html=1;exitX=0.5;exitY=1;exitDx=0;exitDy=0;entryX=0.5;entryY=0;entryDx=0;entryDy=0;fontSize=11;" edge="1" parent="WIyWlLk6GJQsqaUBKTNV-1" source="m1yB8VaNzLGdRQ7UP5lw-18" target="m1yB8VaNzLGdRQ7UP5lw-4">
          <mxGeometry relative="1" as="geometry" />
        </mxCell>
        <mxCell id="m1yB8VaNzLGdRQ7UP5lw-18" value="StorageClient&amp;nbsp;IF" style="rounded=1;whiteSpace=wrap;html=1;fillColor=#66FFFF;strokeColor=#b46504;" vertex="1" parent="WIyWlLk6GJQsqaUBKTNV-1">
          <mxGeometry x="300" y="240" width="90" height="20" as="geometry" />
        </mxCell>
        <mxCell id="m1yB8VaNzLGdRQ7UP5lw-19" value="&lt;font style=&quot;font-size: 11px&quot; face=&quot;Lucida Console&quot;&gt;线程池回调&lt;/font&gt;" style="text;html=1;strokeColor=none;fillColor=none;align=center;verticalAlign=middle;whiteSpace=wrap;rounded=0;fontSize=14;" vertex="1" parent="WIyWlLk6GJQsqaUBKTNV-1">
          <mxGeometry x="290" y="223" width="66" height="10" as="geometry" />
        </mxCell>
        <mxCell id="m1yB8VaNzLGdRQ7UP5lw-20" value="&lt;font style=&quot;font-size: 12px&quot;&gt;SS/PTS&lt;/font&gt;" style="text;html=1;strokeColor=none;fillColor=none;align=center;verticalAlign=middle;whiteSpace=wrap;rounded=0;fontSize=14;" vertex="1" parent="WIyWlLk6GJQsqaUBKTNV-1">
          <mxGeometry x="645" y="180" width="60" height="15" as="geometry" />
        </mxCell>
        <mxCell id="m1yB8VaNzLGdRQ7UP5lw-21" value="&lt;span style=&quot;font-size: 12px&quot;&gt;Sonia&lt;/span&gt;" style="text;html=1;strokeColor=none;fillColor=none;align=center;verticalAlign=middle;whiteSpace=wrap;rounded=0;fontSize=14;" vertex="1" parent="WIyWlLk6GJQsqaUBKTNV-1">
          <mxGeometry x="312" y="180" width="60" height="15" as="geometry" />
        </mxCell>
        <mxCell id="m1yB8VaNzLGdRQ7UP5lw-22" style="edgeStyle=orthogonalEdgeStyle;rounded=0;orthogonalLoop=1;jettySize=auto;html=1;exitX=0;exitY=0.5;exitDx=0;exitDy=0;fontFamily=Lucida Console;fontSize=11;fontColor=#FF0000;strokeColor=#FF3399;" edge="1" parent="WIyWlLk6GJQsqaUBKTNV-1" source="m1yB8VaNzLGdRQ7UP5lw-24" target="m1yB8VaNzLGdRQ7UP5lw-4">
          <mxGeometry relative="1" as="geometry" />
        </mxCell>
        <mxCell id="m1yB8VaNzLGdRQ7UP5lw-23" style="edgeStyle=orthogonalEdgeStyle;rounded=0;orthogonalLoop=1;jettySize=auto;html=1;exitX=0.5;exitY=1;exitDx=0;exitDy=0;entryX=1;entryY=0.25;entryDx=0;entryDy=0;fontFamily=Lucida Console;fontSize=11;fontColor=#FF0000;strokeColor=#FF3399;" edge="1" parent="WIyWlLk6GJQsqaUBKTNV-1" source="m1yB8VaNzLGdRQ7UP5lw-24" target="m1yB8VaNzLGdRQ7UP5lw-26">
          <mxGeometry relative="1" as="geometry" />
        </mxCell>
        <mxCell id="m1yB8VaNzLGdRQ7UP5lw-24" value="&lt;font style=&quot;font-size: 11px&quot;&gt;Frame buf&lt;/font&gt;" style="rounded=0;whiteSpace=wrap;html=1;fontFamily=Times New Roman;fontSize=12;strokeColor=#36393d;fillColor=#ffff88;" vertex="1" parent="WIyWlLk6GJQsqaUBKTNV-1">
          <mxGeometry x="520" y="260" width="56" height="20" as="geometry" />
        </mxCell>
        <mxCell id="m1yB8VaNzLGdRQ7UP5lw-25" style="edgeStyle=orthogonalEdgeStyle;rounded=0;orthogonalLoop=1;jettySize=auto;html=1;exitX=0.5;exitY=0;exitDx=0;exitDy=0;entryX=1;entryY=0.5;entryDx=0;entryDy=0;dashed=1;fontFamily=Lucida Console;fontSize=11;fontColor=#000000;" edge="1" parent="WIyWlLk6GJQsqaUBKTNV-1" source="m1yB8VaNzLGdRQ7UP5lw-26" target="m1yB8VaNzLGdRQ7UP5lw-6">
          <mxGeometry relative="1" as="geometry" />
        </mxCell>
        <mxCell id="m1yB8VaNzLGdRQ7UP5lw-26" value="&lt;p style=&quot;margin: 0px ; margin-top: 4px ; text-align: center ; text-decoration: underline&quot;&gt;&lt;b&gt;RPCMsg: WriteFrame(...)&lt;/b&gt;&lt;/p&gt;&lt;hr&gt;&lt;p style=&quot;margin: 0px ; margin-left: 8px&quot;&gt;field1 = StreamID&lt;br&gt;field2 = &lt;font color=&quot;#ff3399&quot;&gt;Frame buf&lt;/font&gt;&lt;br&gt;field3 = ...&lt;/p&gt;" style="verticalAlign=top;align=left;overflow=fill;fontSize=12;fontFamily=Helvetica;html=1;strokeColor=#36393d;fillColor=#eeeeee;" vertex="1" parent="WIyWlLk6GJQsqaUBKTNV-1">
          <mxGeometry x="420" y="340" width="140" height="80" as="geometry" />
        </mxCell>
        <mxCell id="m1yB8VaNzLGdRQ7UP5lw-27" value="&lt;font style=&quot;font-size: 11px&quot; face=&quot;Lucida Console&quot; color=&quot;#ff0000&quot;&gt;每通道共享内存&lt;br style=&quot;font-size: 11px&quot;&gt;写缓存1MB&lt;/font&gt;" style="text;html=1;strokeColor=none;fillColor=none;align=center;verticalAlign=middle;whiteSpace=wrap;rounded=0;fontSize=14;" vertex="1" parent="WIyWlLk6GJQsqaUBKTNV-1">
          <mxGeometry x="493" y="230" width="110" height="30" as="geometry" />
        </mxCell>
        <mxCell id="m1yB8VaNzLGdRQ7UP5lw-28" value="&lt;font face=&quot;Lucida Console&quot;&gt;&lt;span style=&quot;font-size: 11px&quot;&gt;写入&lt;/span&gt;&lt;/font&gt;" style="text;html=1;strokeColor=none;fillColor=none;align=center;verticalAlign=middle;whiteSpace=wrap;rounded=0;fontSize=14;" vertex="1" parent="WIyWlLk6GJQsqaUBKTNV-1">
          <mxGeometry x="590" y="260" width="40" height="10" as="geometry" />
        </mxCell>
        <mxCell id="m1yB8VaNzLGdRQ7UP5lw-29" value="&lt;font face=&quot;Lucida Console&quot;&gt;&lt;span style=&quot;font-size: 11px&quot;&gt;引用&lt;/span&gt;&lt;/font&gt;" style="text;html=1;strokeColor=none;fillColor=none;align=center;verticalAlign=middle;whiteSpace=wrap;rounded=0;fontSize=14;" vertex="1" parent="WIyWlLk6GJQsqaUBKTNV-1">
          <mxGeometry x="576" y="330" width="40" height="10" as="geometry" />
        </mxCell>
        <mxCell id="m1yB8VaNzLGdRQ7UP5lw-30" value="&lt;font face=&quot;Lucida Console&quot;&gt;&lt;span style=&quot;font-size: 11px&quot;&gt;复用?&lt;/span&gt;&lt;/font&gt;" style="text;html=1;strokeColor=none;fillColor=none;align=center;verticalAlign=middle;whiteSpace=wrap;rounded=0;fontSize=14;" vertex="1" parent="WIyWlLk6GJQsqaUBKTNV-1">
          <mxGeometry x="410" y="280" width="40" height="10" as="geometry" />
        </mxCell>
        <mxCell id="m1yB8VaNzLGdRQ7UP5lw-31" value="" style="verticalLabelPosition=bottom;html=1;verticalAlign=top;align=center;strokeColor=none;fillColor=#00BEF2;shape=mxgraph.azure.vhd;pointerEvents=1;" vertex="1" parent="WIyWlLk6GJQsqaUBKTNV-1">
          <mxGeometry x="299" y="388" width="21" height="20" as="geometry" />
        </mxCell>
        <mxCell id="m1yB8VaNzLGdRQ7UP5lw-32" value="" style="verticalLabelPosition=bottom;html=1;verticalAlign=top;align=center;strokeColor=none;fillColor=#00BEF2;shape=mxgraph.azure.vhd;pointerEvents=1;" vertex="1" parent="WIyWlLk6GJQsqaUBKTNV-1">
          <mxGeometry x="332" y="388" width="21" height="20" as="geometry" />
        </mxCell>
        <mxCell id="m1yB8VaNzLGdRQ7UP5lw-33" value="" style="verticalLabelPosition=bottom;html=1;verticalAlign=top;align=center;strokeColor=none;fillColor=#00BEF2;shape=mxgraph.azure.vhd;pointerEvents=1;" vertex="1" parent="WIyWlLk6GJQsqaUBKTNV-1">
          <mxGeometry x="366" y="388" width="21" height="20" as="geometry" />
        </mxCell>
        <mxCell id="m1yB8VaNzLGdRQ7UP5lw-34" value="" style="shape=flexArrow;endArrow=classic;html=1;rounded=0;fontFamily=Lucida Console;fontSize=11;fontColor=#FF3399;strokeColor=#000000;exitX=0.5;exitY=1;exitDx=0;exitDy=0;width=5.833333333333334;endSize=3.7750000000000004;endWidth=10.13888888888889;entryX=0.5;entryY=0;entryDx=0;entryDy=0;" edge="1" parent="WIyWlLk6GJQsqaUBKTNV-1" source="m1yB8VaNzLGdRQ7UP5lw-3" target="m1yB8VaNzLGdRQ7UP5lw-1">
          <mxGeometry width="50" height="50" relative="1" as="geometry">
            <mxPoint x="320" y="550" as="sourcePoint" />
            <mxPoint x="345" y="350" as="targetPoint" />
          </mxGeometry>
        </mxCell>
        <mxCell id="m1yB8VaNzLGdRQ7UP5lw-35" value="&lt;font face=&quot;Lucida Console&quot; color=&quot;#ff0000&quot;&gt;&lt;span style=&quot;font-size: 11px&quot;&gt;128次RPC写/秒&lt;br&gt;(接入512路*2Mbs)&lt;/span&gt;&lt;/font&gt;" style="text;html=1;strokeColor=none;fillColor=none;align=center;verticalAlign=middle;whiteSpace=wrap;rounded=0;fontSize=14;" vertex="1" parent="WIyWlLk6GJQsqaUBKTNV-1">
          <mxGeometry x="590" y="378" width="134" height="42" as="geometry" />
        </mxCell>
        <mxCell id="m1yB8VaNzLGdRQ7UP5lw-36" value="" style="rounded=0;whiteSpace=wrap;html=1;fillColor=#FFFFFF;strokeColor=#000000;gradientColor=none;" vertex="1" parent="WIyWlLk6GJQsqaUBKTNV-1">
          <mxGeometry x="280" y="520" width="80" height="140" as="geometry" />
        </mxCell>
        <mxCell id="m1yB8VaNzLGdRQ7UP5lw-37" value="&lt;code style=&quot;text-align: left; margin: 0px !important; padding: 0px !important; font-family: Consolas, &amp;quot;Bitstream Vera Sans Mono&amp;quot;, &amp;quot;Courier New&amp;quot;, Courier, monospace !important; border-radius: 0px !important; background: none !important; border: 0px !important; inset: auto !important; float: none !important; height: auto !important; line-height: 1.8em !important; outline: 0px !important; overflow: visible !important; position: static !important; vertical-align: baseline !important; width: auto !important; box-sizing: content-box !important; font-weight: bold !important; min-height: auto !important; color: rgb(255, 20, 147) !important;&quot; class=&quot;cpp functions bold&quot;&gt;signal&lt;/code&gt;&lt;code style=&quot;text-align: left; margin: 0px !important; padding: 0px !important; font-family: Consolas, &amp;quot;Bitstream Vera Sans Mono&amp;quot;, &amp;quot;Courier New&amp;quot;, Courier, monospace !important; border-radius: 0px !important; background: none !important; border: 0px !important; inset: auto !important; float: none !important; height: auto !important; line-height: 1.8em !important; outline: 0px !important; overflow: visible !important; position: static !important; vertical-align: baseline !important; width: auto !important; box-sizing: content-box !important; min-height: auto !important;&quot; class=&quot;cpp plain&quot;&gt;(SIGUSRx, coredumpHandler)&lt;/code&gt;" style="rounded=1;whiteSpace=wrap;html=1;fillColor=#66FFFF;strokeColor=#b46504;" vertex="1" parent="WIyWlLk6GJQsqaUBKTNV-1">
          <mxGeometry x="440" y="520" width="250" height="20" as="geometry" />
        </mxCell>
        <mxCell id="m1yB8VaNzLGdRQ7UP5lw-39" value="&lt;font face=&quot;Lucida Console&quot;&gt;fork()-----&amp;gt;子进程-----&amp;gt;abort()&lt;/font&gt;" style="rounded=1;whiteSpace=wrap;html=1;strokeColor=#000000;fillColor=#FFCCCC;align=center;" vertex="1" parent="WIyWlLk6GJQsqaUBKTNV-1">
          <mxGeometry x="440" y="560" width="250" height="20" as="geometry" />
        </mxCell>
      </root>
    </mxGraphModel>
  </diagram>
</mxfile>
